HIERARCHY
ROOT Hips
{
	OFFSET -0.179506 -22.333345 2.821913
	CHANNELS 6 Xposition Yposition Zposition Zrotation Yrotation Xrotation 
	JOINT LeftUpLeg
	{
		OFFSET 6.951974 -9.140623 -0.681533
		CHANNELS 3 Zrotation Yrotation Xrotation
		JOINT LeftLeg
		{
			OFFSET 3.427654 -37.519855 -0.449580
			CHANNELS 3 Zrotation Yrotation Xrotation
			JOINT LeftFoot
			{
				OFFSET -1.359570 -39.796059 -4.369333
				CHANNELS 3 Zrotation Yrotation Xrotation
				JOINT LeftToe
				{
					OFFSET 2.635814 -5.579078 11.928840
					CHANNELS 3 Zrotation Yrotation Xrotation
					End Site
					{
						OFFSET 0.000000 0.000000 0.000000
					}
				}
			}
		}
	}
	JOINT RightUpLeg
	{
		OFFSET -6.767048 -9.052170 -0.431982
		CHANNELS 3 Zrotation Yrotation Xrotation
		JOINT RightLeg
		{
			OFFSET -3.829005 -38.256897 -0.885003
			CHANNELS 3 Zrotation Yrotation Xrotation
			JOINT RightFoot
			{
				OFFSET 1.577377 -39.841461 -4.231180
				CHANNELS 3 Zrotation Yrotation Xrotation
				JOINT RightToe
				{
					OFFSET -2.537174 -4.814398 12.334795
					CHANNELS 3 Zrotation Yrotation Xrotation
					End Site
					{
						OFFSET 0.000000 0.000000 0.000000
					}
				}
			}
		}
	}
	JOINT Spine
	{
		OFFSET -0.253288 10.896323 -2.669631
		CHANNELS 3 Zrotation Yrotation Xrotation
		JOINT Spine1
		{
			OFFSET 0.548704 13.518043 0.109247
			CHANNELS 3 Zrotation Yrotation Xrotation
			JOINT Spine2
			{
				OFFSET 0.145701 5.292222 2.542457
				CHANNELS 3 Zrotation Yrotation Xrotation
				JOINT Neck
				{
					OFFSET -0.277840 21.387037 -4.285703
					CHANNELS 3 Zrotation Yrotation Xrotation
					JOINT Head
					{
						OFFSET 0.515184 6.496960 5.134897
						CHANNELS 3 Zrotation Yrotation Xrotation
						End Site
						{
							OFFSET 0.000000 0.000000 0.000000
						}
					}
				}
				JOINT LeftShoulder
				{
					OFFSET 7.884473 12.174932 -3.408961
					CHANNELS 3 Zrotation Yrotation Xrotation
					JOINT LeftArm
					{
						OFFSET 9.097692 3.046888 -0.886815
						CHANNELS 3 Zrotation Yrotation Xrotation
						JOINT LeftForeArm
						{
							OFFSET 25.961220 -1.277207 -2.745643
							CHANNELS 3 Zrotation Yrotation Xrotation
							JOINT LeftHand
							{
								OFFSET 24.923361 0.898606 -0.117091
								CHANNELS 3 Zrotation Yrotation Xrotation
								End Site
								{
									OFFSET 0.000000 0.000000 0.000000
								}
							}
						}
					}
				}
				JOINT RightShoulder
				{
					OFFSET -8.175920 11.883285 -3.861528
					CHANNELS 3 Zrotation Yrotation Xrotation
					JOINT RightArm
					{
						OFFSET -9.601238 3.255117 -0.914307
						CHANNELS 3 Zrotation Yrotation Xrotation
						JOINT RightForeArm
						{
							OFFSET -25.374195 -1.332924 -2.140099
							CHANNELS 3 Zrotation Yrotation Xrotation
							JOINT RightHand
							{
								OFFSET -25.529810 0.777228 -0.555919
								CHANNELS 3 Zrotation Yrotation Xrotation
								End Site
								{
									OFFSET 0.000000 0.000000 0.000000
								}
							}
						}
					}
				}
			}
		}
	}
}
MOTION
Frames: 16
Frame Time: 0.033333
22.808220 2.565841 88.085052 -55.095221 -6.278020 83.014250 -9.009968 -14.220571 -20.726443 -17.750485 -9.476249 37.740374 13.208556 13.680459 -7.957925 nan nan nan -6.061564 1.160112 -10.992792 5.999601 -6.883644 80.117025 0.804714 -7.856720 -3.454319 nan nan nan -3.974982 1.186253 8.846747 0.080936 -4.852483 0.993926 0.234171 -0.720559 -1.629494 -9.677871 1.926619 14.230360 4.668716 10.130348 -16.477853 -13.007064 -8.710661 4.096370 -41.966145 -4.998785 3.889450 15.302931 -10.446868 -10.066955 -9.642803 -13.757347 -7.539355 9.903110 2.362106 -3.228769 65.965387 -8.394210 0.732837 -13.063712 14.841429 -4.779532 13.831792 8.497941 -14.251517 
21.984255 2.055983 88.775368 -55.110178 -5.663790 82.586015 -8.857329 -13.559309 -18.488944 -17.665574 -10.877314 36.353308 12.739604 14.116248 -7.706750 nan nan nan -5.595803 1.500427 -12.484718 4.603466 -7.430657 80.588126 0.300483 -9.590492 -3.612117 nan nan nan -3.648662 0.496245 9.401791 0.419266 -4.713979 0.664078 0.513468 -0.843679 -1.220815 -9.763318 2.432549 14.577975 4.414460 9.848531 -16.694957 -11.786494 -9.160984 3.909744 -42.291470 -5.163957 3.887010 15.211049 -10.432037 -10.223700 -8.904947 -13.838536 -8.770028 9.000579 2.647258 -3.660383 65.884922 -8.750281 0.623540 -13.201073 15.047466 -5.126753 12.939236 8.503900 -15.983679 
21.141579 1.546309 89.538246 -55.141943 -4.891814 82.216554 -8.498576 -12.858747 -16.248393 -17.311517 -12.287005 34.810620 12.075439 14.314080 -7.389794 nan nan nan -4.994915 1.787281 -13.881345 3.363374 -7.739503 80.639323 0.141121 -10.959800 -3.686757 nan nan nan -3.210768 -0.183168 9.672407 0.842635 -4.532552 0.365434 0.822488 -1.000458 -0.622588 -10.001097 2.893532 15.065435 4.078627 9.607919 -16.877890 -10.673406 -9.490472 3.685719 -42.718382 -5.535662 3.602434 15.079777 -10.221046 -10.410622 -8.378446 -14.055607 -9.265643 8.150363 2.800212 -4.001420 65.585495 -8.879353 0.370742 -13.128802 15.034094 -4.891955 12.769592 8.907968 -16.427432 
20.254841 1.005399 90.409683 -55.128151 -4.048817 81.749981 -8.110067 -11.988925 -13.675787 -16.879191 -14.113613 33.025408 11.356526 14.521726 -6.933703 nan nan nan -4.333966 2.002932 -14.920030 2.258386 -8.034940 80.196547 0.044129 -12.216096 -3.715019 nan nan nan -2.580858 -0.955231 10.074656 1.178797 -4.433460 -0.222144 1.051918 -1.080169 0.055368 -10.215305 3.347180 15.626434 3.751407 9.364978 -16.697492 -9.673633 -9.687346 3.501731 -43.146208 -5.913318 3.173351 15.031522 -9.877532 -10.574078 -8.363054 -14.187558 -9.571046 7.351399 2.974334 -4.086354 65.371258 -9.002277 -0.012710 -12.962456 15.145600 -4.292745 13.233225 9.192103 -16.385240 
19.380079 0.445693 91.371582 -55.176287 -3.165486 81.276499 -7.667254 -10.977761 -11.085557 -16.306759 -16.057295 31.220120 10.530400 14.703558 -6.409848 nan nan nan -3.600722 2.255310 -15.745604 1.428244 -8.315451 79.438599 -0.180331 -13.322822 -3.910873 nan nan nan -1.737076 -1.820397 10.555872 1.404109 -4.357653 -1.096023 1.175471 -1.023691 0.863536 -10.435283 3.849600 16.222022 3.433484 9.136679 -16.354953 -8.771669 -9.766041 3.261566 -43.496515 -6.194517 2.833296 14.878048 -9.643817 -10.554808 -8.348585 -14.259221 -10.145358 6.492437 3.120481 -4.184049 65.213904 -9.092172 -0.422406 -12.394483 15.179621 -3.889480 13.689612 9.211868 -17.149055 
18.527029 -0.139971 92.394989 -55.255708 -2.355273 80.779360 -7.227683 -9.992325 -8.573155 -15.559370 -17.684695 29.327087 9.618224 14.748951 -5.471114 nan nan nan -2.961775 2.470132 -16.369024 0.800191 -8.496774 78.313312 -0.557123 -14.085519 -3.954157 nan nan nan -0.871509 -2.720973 10.758963 1.588942 -4.342760 -1.510079 1.192227 -0.871351 1.588261 -10.603065 4.295785 16.804244 2.947733 8.897899 -16.050620 -7.974620 -9.691983 2.999072 -43.763985 -6.430356 2.455840 14.646278 -9.869968 -10.684057 -7.954704 -14.150158 -10.607115 5.741029 3.328341 -4.182615 65.035641 -9.046740 -0.733584 -11.875662 15.297414 -3.902422 13.868401 9.217976 -18.020049 
17.682423 -0.718213 93.483315 -55.369535 -1.548449 80.369922 -6.674086 -9.152033 -6.305384 -14.648935 -19.050332 27.408583 8.529797 14.669154 -4.092357 nan nan nan -2.339318 2.644054 -16.982284 0.085910 -8.711547 76.810647 -0.988938 -14.604976 -3.388759 nan nan nan -0.064136 -3.448277 10.631508 1.870673 -4.285976 -1.421246 1.219859 -0.718264 2.077267 -10.714797 4.728966 17.453110 2.357081 8.581142 -15.754354 -7.379288 -9.665633 2.845158 -44.076877 -6.704663 2.163153 14.684584 -10.250474 -10.790560 -7.456639 -14.079910 -10.947566 4.949730 3.399234 -4.212820 64.982134 -9.167138 -0.981938 -11.668594 15.813006 -3.767384 13.419315 9.270758 -18.378509 
16.874300 -1.310753 94.607155 -55.512622 -0.880108 80.053296 -6.212488 -8.504928 -4.250954 -13.623430 -20.157458 25.465321 7.377976 14.521627 -2.548894 nan nan nan -1.997222 2.788888 -17.584417 -0.419003 -9.022373 75.052930 -0.979057 -14.906698 -2.890103 nan nan nan 0.701617 -4.048435 10.378552 2.096500 -4.203623 -1.245643 1.201911 -0.623429 2.510873 -10.780962 5.169158 18.014605 1.825853 8.090329 -15.282786 -6.762866 -9.472106 2.576604 -44.533460 -7.043795 2.096988 14.920889 -10.601141 -10.731748 -7.529424 -14.288776 -11.017811 4.206917 3.463205 -4.233405 65.046970 -9.330822 -1.017665 -11.771275 16.306521 -3.530818 13.316583 9.286692 -18.238190 
16.058165 -1.933333 95.758057 -55.618560 -0.271431 79.783601 -5.805261 -7.980372 -2.307291 -12.447573 -21.064481 23.460972 6.124902 14.235699 -0.819183 nan nan nan -1.800797 2.954518 -17.993065 -0.520129 -9.297870 73.033033 -0.659177 -14.832851 -2.738148 nan nan nan 1.409747 -4.598407 9.982913 2.317877 -4.119695 -0.904140 1.205276 -0.495935 2.791124 -10.908145 5.587054 18.750445 1.472267 7.642196 -14.875002 -6.150184 -9.149279 2.291116 -45.157016 -7.671601 1.954012 15.158650 -10.635332 -10.842175 -8.462326 -14.645794 -10.647077 3.538822 3.388662 -4.126460 65.004517 -9.357518 -1.071488 -11.768399 16.407179 -3.060398 14.618276 9.581517 -17.244095 
15.237127 -2.568436 96.937134 -55.706169 0.278813 79.608786 -5.344346 -7.565880 -0.635807 -11.235563 -21.593560 21.406232 4.696259 13.832593 1.534505 nan nan nan -1.647997 3.100166 -18.364336 -0.438167 -9.495428 70.801135 -0.667999 -14.486890 -2.248152 nan nan nan 2.102623 -5.066469 9.539301 2.536054 -4.071514 -0.397509 1.206021 -0.353840 2.708185 -11.023707 5.777034 19.529992 1.125739 7.363834 -14.294633 -5.841080 -8.865279 2.247376 -45.594251 -8.151074 1.802340 15.323510 -11.013034 -11.137695 -8.984299 -14.758038 -10.135304 3.001986 3.250577 -3.818158 64.721651 -9.351301 -1.094355 -11.295189 16.413810 -2.673246 16.050272 9.881598 -16.450233 
14.411071 -3.209125 98.131248 -55.724519 0.806557 79.357648 -4.856593 -7.090258 0.994803 -10.030459 -21.962664 19.347927 3.345219 13.369793 4.400821 nan nan nan -1.454105 3.175694 -18.431456 -0.154430 -9.591345 68.288425 -0.710601 -14.027725 -1.834109 nan nan nan 2.696157 -5.483245 9.166636 2.787073 -4.100302 0.311652 1.255402 -0.183493 2.426568 -11.193034 5.962939 20.297638 0.758128 7.078737 -13.813542 -5.647084 -8.744720 2.345742 -46.040210 -8.513207 1.682241 15.543690 -11.410453 -11.236206 -8.922317 -14.934210 -9.940884 2.605224 3.183389 -3.330082 64.327333 -9.342201 -1.122279 -10.684378 16.566548 -2.428142 16.610269 10.061492 -16.150722 
13.597305 -3.851338 99.297272 -55.696332 1.237724 79.100861 -4.498196 -6.882102 2.494566 -8.906776 -22.438852 17.429814 2.326339 12.778192 7.189998 nan nan nan -1.356133 3.249003 -18.337968 0.310263 -9.633913 65.611004 -0.558286 -13.394932 -1.700094 nan nan nan 3.144570 -5.775495 8.890629 3.003809 -4.128486 0.994774 1.301227 -0.002784 2.054058 -11.301709 6.133949 21.174334 0.595573 6.779521 -13.536725 -5.318205 -8.572777 2.503735 -46.640305 -9.160604 1.761833 15.709360 -11.538965 -11.230289 -8.894091 -15.170545 -9.645022 2.271178 2.982591 -2.702940 64.013145 -9.263960 -1.059081 -10.322885 16.715980 -2.069449 17.166515 10.208955 -15.438448 
12.787395 -4.491688 100.414520 -55.595602 1.538117 78.861726 -4.348036 -6.869854 3.896580 -7.683491 -23.046691 15.489485 1.777055 12.071563 10.234086 nan nan nan -1.374541 3.284337 -18.196319 0.955935 -9.512506 62.888169 -0.376590 -12.799043 -1.380737 nan nan nan 3.375590 -5.945875 8.709600 3.208773 -4.108681 1.531272 1.418438 0.095314 1.779948 -11.454201 6.144314 22.162589 0.572741 6.517333 -13.487353 -4.975280 -8.427503 2.586825 -47.183529 -9.848791 1.874854 15.635057 -11.608725 -11.199444 -8.788066 -15.309779 -9.324126 1.875150 2.742739 -2.257397 63.853392 -9.224804 -0.870175 -10.177860 16.665998 -1.598869 17.537396 10.393706 -14.488434 
11.987674 -5.139234 101.468948 -55.366352 1.777950 78.675782 -4.234770 -6.803523 5.024700 -6.546075 -23.501752 13.710417 1.054555 11.273187 13.505965 nan nan nan -1.474090 3.270161 -18.035592 1.625632 -9.262301 60.198607 -0.566022 -12.211166 -0.756951 nan nan nan 3.532213 -6.092719 8.506174 3.399964 -4.144371 1.976523 1.554298 0.181692 1.624387 -11.637945 6.014870 23.075358 0.674848 6.251416 -13.506518 -4.767776 -8.471265 2.694593 -47.455151 -10.399596 1.833741 15.255025 -11.672169 -10.932647 -7.813743 -15.503571 -9.287447 1.450127 2.620349 -1.895469 63.791763 -9.297035 -0.885202 -10.145997 16.728431 -1.215660 16.356757 10.834128 -13.518924 
11.214094 -5.755977 102.445305 -55.102418 1.976016 78.594391 -4.107718 -6.663103 5.557978 -5.770059 -23.916995 12.719982 0.080088 10.544040 16.238129 nan nan nan -1.574414 3.335116 -17.976657 2.170138 -9.060191 57.617562 -1.056284 -11.728562 -0.372906 nan nan nan 3.678646 -6.273783 8.386042 3.518599 -4.137028 2.250947 1.633791 0.313082 1.413204 -11.749765 5.937675 23.969720 0.959579 5.998763 -13.573194 -4.561118 -8.385325 2.869883 -47.667795 -11.095808 1.848471 14.841360 -11.651582 -10.747019 -7.567211 -15.512216 -9.197104 1.104900 2.447757 -1.382047 63.743900 -9.344209 -0.793373 -10.095107 16.799950 -0.571946 15.916177 10.819065 -12.782185 
10.446638 -6.344978 103.345253 -54.727687 2.153408 78.534034 -3.951508 -6.618243 5.689371 -5.482758 -24.587205 12.512640 -0.520941 9.919192 18.333776 nan nan nan -1.635122 3.316979 -17.835133 2.535743 -8.967857 54.987657 -1.123111 -11.791321 -0.810588 nan nan nan 3.732484 -6.425937 8.417750 3.581430 -4.138342 2.237623 1.785868 0.390490 1.356780 -12.032948 5.688588 24.815682 1.393893 5.979480 -13.825617 -4.473383 -8.239466 3.153726 -47.711576 -11.861254 1.680905 14.519106 -11.789914 -10.787910 -8.879564 -14.891415 -8.685286 0.922259 2.270472 -0.824648 63.562938 -9.272311 -0.706696 -9.681743 16.246978 0.232503 18.567678 9.459161 -12.800767 
